<svg id="Layer_1" data-name="Layer 1" xmlns="http://www.w3.org/2000/svg" xmlns:xlink="http://www.w3.org/1999/xlink" viewBox="0 0 40 25.17"><defs><style>.cls-1{opacity:0.15;isolation:isolate;fill:url(#linear-gradient);}.cls-2{fill:url(#linear-gradient-2);}.cls-3{fill:url(#linear-gradient-3);}.cls-4{fill:url(#linear-gradient-4);}.cls-5{fill:url(#linear-gradient-5);}.cls-6{fill:url(#linear-gradient-6);}.cls-7{fill:url(#linear-gradient-7);}</style><linearGradient id="linear-gradient" x1="-7.12" y1="31.37" x2="24.05" y2="13.34" gradientTransform="matrix(0, 1, 1, 0, -2.01, 9.01)" gradientUnits="userSpaceOnUse"><stop offset="0.26" stop-color="#ffdb6e"/><stop offset="1" stop-color="#ffbc5e"/></linearGradient><linearGradient id="linear-gradient-2" x1="12.39" y1="31.03" x2="26.05" y2="23.04" gradientTransform="translate(-10.74 13.83) rotate(-30.49)" xlink:href="#linear-gradient"/><linearGradient id="linear-gradient-3" x1="18.55" y1="21.22" x2="39.67" y2="8.88" gradientTransform="matrix(1, 0, 0, 1, 0, 0)" xlink:href="#linear-gradient"/><linearGradient id="linear-gradient-4" x1="-0.52" y1="27.6" x2="20.6" y2="15.26" gradientTransform="matrix(1, 0, 0, 1, 0, 0)" xlink:href="#linear-gradient"/><linearGradient id="linear-gradient-5" x1="16.27" y1="18.76" x2="22.98" y2="14.85" gradientTransform="matrix(1, 0, 0, 1, 0, 0)" xlink:href="#linear-gradient"/><linearGradient id="linear-gradient-6" x1="25.58" y1="18.95" x2="25.58" y2="18.95" gradientTransform="matrix(1, 0, 0, 1, 0, 0)" xlink:href="#linear-gradient"/><linearGradient id="linear-gradient-7" x1="25.79" y1="19.34" x2="25.79" y2="19.34" gradientTransform="matrix(1, 0, 0, 1, 0, 0)" xlink:href="#linear-gradient"/></defs><title>icon-video</title><path class="cls-1" d="M39,8.64a2.21,2.21,0,0,0-2-2.37H3A2.2,2.2,0,0,0,1,8.64V27.53a2.21,2.21,0,0,0,2,2.38H37a2.21,2.21,0,0,0,2-2.38Z" transform="translate(0.01 -5.41)"/><path class="cls-2" d="M35.1,27.81a.69.69,0,0,0,.69-.67.68.68,0,0,0-.67-.68L4.27,26.39a.68.68,0,0,0,0,1.36Z" transform="translate(0.01 -5.41)"/><path class="cls-3" d="M36.89,5.41H10.57a.68.68,0,0,0,0,1.36H36.89a1.73,1.73,0,0,1,1.74,1.74v19a1.74,1.74,0,0,1-1.74,1.74H32.37a.68.68,0,0,0,0,1.36h4.52a3.1,3.1,0,0,0,3.1-3.1v-19A3.1,3.1,0,0,0,36.89,5.41Z" transform="translate(0.01 -5.41)"/><path class="cls-4" d="M29.4,29.23H3.08a1.74,1.74,0,0,1-1.74-1.74v-19A1.73,1.73,0,0,1,3.08,6.77H7.6a.68.68,0,0,0,0-1.36H3.08A3.09,3.09,0,0,0,0,8.51v19a3.09,3.09,0,0,0,3.09,3.1H29.4a.68.68,0,0,0,0-1.36Z" transform="translate(0.01 -5.41)"/><path class="cls-5" d="M17.39,14.63v5.64a1.34,1.34,0,0,0,.66,1.15,1,1,0,0,0,1-.06l5-3.11a1.17,1.17,0,0,0,.49-.94,1.19,1.19,0,0,0-.49-.93l-5-2.88a1,1,0,0,0-1,0A1.31,1.31,0,0,0,17.39,14.63Zm6.09,2.86-4.77,3a.23.23,0,0,1-.23-.23V14.63a.23.23,0,0,1,.23-.24l4.77,2.77A.24.24,0,0,1,23.48,17.49Z" transform="translate(0.01 -5.41)"/><path class="cls-6" d="M25.58,19" transform="translate(0.01 -5.41)"/><path class="cls-7" d="M25.79,19.34" transform="translate(0.01 -5.41)"/></svg>