<svg id="Main" xmlns="http://www.w3.org/2000/svg" viewBox="0 0 1073.27 956.22"><defs><style>.cls-1{fill:#fff;}</style></defs><title>MelGarcia-Logo</title><g id="logo"><path class="cls-1" d="M463.69,958.3c-253.1,0-459-224.88-459-501.29,0-137.93,52.8-271.17,144.87-365.56a7.77,7.77,0,0,1,.75-.65c.11-.09.22-.17.3-.25a2.54,2.54,0,0,0,.28-.29,5.11,5.11,0,0,1,.45-.48,6.23,6.23,0,0,1,.92-.7c.16-.11.32-.21.48-.34a29.84,29.84,0,0,1,2.82-2c.76-.47,1.52-.86,2.26-1.24l.12-.06a32.28,32.28,0,0,1,3-1.34c.92-.34,1.81-.59,2.67-.84a30.18,30.18,0,0,1,3-.69c.67-.11,1.31-.17,2-.23l.85-.08c.72-.07,1.52-.11,2.37-.11h.66a26.47,26.47,0,0,1,2.91.23c1,.12,2,.26,2.94.47a24.69,24.69,0,0,1,2.88.81l.45.16c.76.26,1.54.54,2.3.87a30.35,30.35,0,0,1,2.79,1.41,28.52,28.52,0,0,1,2.48,1.49c.9.66,1.75,1.36,2.56,2.08l.46.35a10.86,10.86,0,0,1,1.11.91,4.15,4.15,0,0,1,.43.51c.07.08.13.17.21.25s.17.15.25.23a3.74,3.74,0,0,1,.51.47L535.22,465.7l53-76.58-340.59-362-.27-.3a6.55,6.55,0,0,1,.86-9.21,58.75,58.75,0,0,1,80.26,5L624.31,337,829,41.24l.25-.36a31,31,0,0,1,43.24-7.23c105,75,177.58,198.84,199.23,339.87a30.91,30.91,0,0,1-24.8,35.14l-.47.1-.24,0a2,2,0,0,0-.34.06,3.14,3.14,0,0,1-.9.12,32.52,32.52,0,0,1-4.51.37L922,409.11a71.83,71.83,0,0,1-66.49-46.59,634.68,634.68,0,0,0-74.7-142.78L579.65,510.48a52.18,52.18,0,0,1-39.89,22.66,33.23,33.23,0,0,1-3.59.13,52.6,52.6,0,0,1-38.93-17.22L264.1,260.4c-27.45,60.57-42,128.54-42,196.69,0,148.25,67.13,285.57,179.59,367.34l3.81,2.77-4.61-1c-3.54-.75-7.12-1.59-10.63-2.49a279.83,279.83,0,0,1-122.67-67.86,301.72,301.72,0,0,1-76.71-118.23,538,538,0,0,1-30.8-180.55c0-86.12,20.4-171.15,59-245.94l-47.2-51.74C104,241,66.65,346.68,66.65,457.09c0,242.23,178.09,439.31,397,439.31,193.7,0,357.94-152.6,390.92-363H704.28a7.11,7.11,0,0,1-7.1-7.1,54.94,54.94,0,0,1,54.88-54.88h292.86A30.89,30.89,0,0,1,1075.84,505c-10.52,123.24-62.36,237.34-146,321.28-55,55.23-122.4,95.27-194.89,115.8l-6.29,1.78,5.47-3.58c29.43-19.27,79.82-60.78,105.07-89.52,19.43-22.11,55.35-65.22,69-86.75,43.06-67.74,81.94-156,101.65-230.65H917.24a530.48,530.48,0,0,1-48.27,159,497.67,497.67,0,0,1-94.73,133.77C689.38,911.37,579.14,958.3,463.83,958.3Zm354.7-792.78c41.48,56.18,71.77,112,95.29,175.46a9.14,9.14,0,0,0,8.5,6.14l81.41.16c-22.3-98.19-72.77-184.68-142.28-243.78Z" transform="translate(-3.69 -3.07)"/><path d="M285.69,5.07a57.64,57.64,0,0,1,42.08,18.18L624.43,338.6,829.86,41.81l.24-.35a30,30,0,0,1,41.85-7c104.74,74.8,177.21,198.44,198.82,339.21a30,30,0,0,1-24,34l-.48.1a5.64,5.64,0,0,0-.67.13,2.32,2.32,0,0,1-.69.07,31.41,31.41,0,0,1-4.44.37h-.06L922,408.11a70.47,70.47,0,0,1-65.55-45.93C837.39,310.67,812.9,264.06,780.83,218l-202,291.93a51.57,51.57,0,0,1-39.13,22.23,34.79,34.79,0,0,1-3.53.12h-.07A51.48,51.48,0,0,1,498,515.38L263.82,258.61c-28,61.25-42.67,129-42.67,198.48,0,153.82,71.68,289.39,180,368.15q-5.34-1.14-10.59-2.48C297.39,799.11,224,727.89,191.87,637.3a538.32,538.32,0,0,1-30.74-180.21c0-86.74,20.45-171.25,59.22-246.1l-48.44-53.11c-67.79,81-106.26,188.21-106.26,299.21,0,242.79,178.55,440.31,398,440.31,196.09,0,359.65-154.79,392.09-365H704.28a6.11,6.11,0,0,1-6.1-6.1h0a53.86,53.86,0,0,1,53.88-53.87h292.86A30.54,30.54,0,0,1,1057.3,475,30.08,30.08,0,0,1,1074.85,505c-10.5,123-62.24,236.88-145.69,320.66-55.69,55.91-122.45,95.15-194.45,115.54C765,921.34,815.32,879.54,840,851.46c16.82-19.14,54.64-64.06,69.14-86.87,39.79-62.6,80.93-151.28,102.1-232.19H916.37c-15.54,112.28-65.63,215.52-142.84,293.06-84.67,85-194.6,131.84-309.7,131.84h-.14c-252.56,0-458-224.43-458-500.29,0-137.66,52.7-270.65,144.59-364.86.31-.32.73-.61,1-.85s.46-.53.73-.77a15.66,15.66,0,0,1,1.35-1,27.52,27.52,0,0,1,2.73-1.94c.76-.47,1.53-.86,2.31-1.26,1-.47,2-1,2.9-1.29s1.67-.55,2.59-.81a27.92,27.92,0,0,1,2.92-.67c.92-.15,1.8-.2,2.77-.3a21.56,21.56,0,0,1,2.27-.11h.64a26.82,26.82,0,0,1,2.81.23c.95.12,1.92.25,2.85.45a22.7,22.7,0,0,1,2.76.78c.91.32,1.81.62,2.69,1A28.08,28.08,0,0,1,186.28,87a27,27,0,0,1,2.41,1.45,31.13,31.13,0,0,1,2.46,2,18.86,18.86,0,0,1,1.54,1.23c.24.23.39.5.62.74s.51.41.73.66L535.33,467.31,589.52,389,248.38,26.4c-.08-.09-.16-.17-.23-.26a5.54,5.54,0,0,1,.73-7.8A57.52,57.52,0,0,1,285.69,5.07m719.15,343.22C982.53,248.91,931.73,161.72,861.12,102l-44,63.51c41.58,56.21,72.17,112.57,95.58,175.79a10.12,10.12,0,0,0,9.43,6.79l82.67.17M285.69,3.07v0A59.84,59.84,0,0,0,247.6,16.8a7.54,7.54,0,0,0-1,10.61l.31.36L587,389.22,535.11,464.1,195.52,91.71a7,7,0,0,0-.6-.56l-.17-.14a1.09,1.09,0,0,1-.13-.17,5.32,5.32,0,0,0-.55-.63,10.76,10.76,0,0,0-1.19-1l-.44-.33a32.11,32.11,0,0,0-2.57-2.09h0l0,0a28.14,28.14,0,0,0-2.59-1.56,31.2,31.2,0,0,0-2.83-1.43c-.83-.36-1.63-.64-2.41-.91l-.43-.15a24.35,24.35,0,0,0-3-.85c-1-.22-2-.36-3-.48a28.56,28.56,0,0,0-3-.24h-.68a23.82,23.82,0,0,0-2.48.12l-.83.07c-.66.06-1.34.13-2,.24a31.18,31.18,0,0,0-3.15.72c-.92.26-1.79.51-2.74.86-.8.3-1.83.76-3.08,1.37l-.16.08c-.76.39-1.54.79-2.32,1.28A32.13,32.13,0,0,0,152.11,88l-.4.28a7.28,7.28,0,0,0-1.06.82c-.22.2-.38.39-.52.54a1.28,1.28,0,0,1-.18.2l-.26.22a8.38,8.38,0,0,0-.85.73C56.6,185.33,3.69,318.82,3.69,457c0,277,206.35,502.29,460,502.29h.14c115.58,0,226.07-47,311.12-132.43a498.69,498.69,0,0,0,94.92-134A531.48,531.48,0,0,0,918.11,534.4h90.51c-19.79,74.3-58.43,161.84-101.19,229.11-13.66,21.49-49.54,64.54-68.95,86.63-25.19,28.68-75.49,70.1-104.87,89.34l-10.93,7.16,12.57-3.56a438.06,438.06,0,0,0,103.82-44.65A462.08,462.08,0,0,0,930.58,827c83.78-84.12,135.72-198.44,146.26-321.9a32.16,32.16,0,0,0-18.72-31.93,32.48,32.48,0,0,0-13.2-2.79H752.07a55.93,55.93,0,0,0-55.89,55.87,8.11,8.11,0,0,0,8.1,8.11H853.4c-33.33,209.32-196.9,361-389.75,361-218.36,0-396-196.63-396-438.31,0-109.78,37-214.87,104.33-296.17l46,50.39a527.92,527.92,0,0,0-43.67,117.8,546.74,546.74,0,0,0-15.13,128A539.13,539.13,0,0,0,190,638a302.79,302.79,0,0,0,77,118.62,280.73,280.73,0,0,0,123.12,68.11c3.52.9,7.11,1.74,10.66,2.5l9.22,2-7.63-5.54C290.13,742,223.15,605,223.15,457.09c0-67.49,14.25-134.8,41.24-194.89L496.5,516.72a53.55,53.55,0,0,0,39.6,17.55h.07a35.77,35.77,0,0,0,3.69-.13,53.23,53.23,0,0,0,40.62-23.09L780.83,221.5a633.11,633.11,0,0,1,73.76,141.37A72.48,72.48,0,0,0,922,410.11l118.42.24h.07a33.57,33.57,0,0,0,4.6-.37,4.22,4.22,0,0,0,1.11-.16l.2,0,.25,0h0l.48-.1a31.9,31.9,0,0,0,25.57-36.26C1051.05,232.07,978.29,108,873.11,32.84a31.76,31.76,0,0,0-18.56-6A32.12,32.12,0,0,0,828.47,40.3l-.26.37-204,294.75-295-313.54A60,60,0,0,0,285.69,3.07ZM819.62,165.5,861.51,105c68.61,58.7,118.52,144.22,140.82,241.3l-80.16-.16a8.13,8.13,0,0,1-7.54-5.45c-23.49-63.42-53.69-119.1-95-175.17Z" transform="translate(-3.69 -3.07)"/></g></svg>